<svg width="1620" height="160" viewBox="0 0 1620 160" fill="none" xmlns="http://www.w3.org/2000/svg">
<path d="M45 0H135V115C135 139.853 114.853 160 90 160V160C65.1472 160 45 139.853 45 115V0Z" fill="#EA8D8F"/>
<path d="M135 0H225V115C225 139.853 204.853 160 180 160V160C155.147 160 135 139.853 135 115V0Z" fill="#E89D9F"/>
<path d="M315 0H405V115C405 139.853 384.853 160 360 160V160C335.147 160 315 139.853 315 115V0Z" fill="#E89D9F"/>
<path d="M495 0H585V115C585 139.853 564.853 160 540 160V160C515.147 160 495 139.853 495 115V0Z" fill="#E89D9F"/>
<path d="M675 0H765V115C765 139.853 744.853 160 720 160V160C695.147 160 675 139.853 675 115V0Z" fill="#E89D9F"/>
<path d="M855 0H945V115C945 139.853 924.853 160 900 160V160C875.147 160 855 139.853 855 115V0Z" fill="#E89D9F"/>
<path d="M1035 0H1125V115C1125 139.853 1104.85 160 1080 160V160C1055.15 160 1035 139.853 1035 115V0Z" fill="#E89D9F"/>
<path d="M1215 0H1305V115C1305 139.853 1284.85 160 1260 160V160C1235.15 160 1215 139.853 1215 115V0Z" fill="#E89D9F"/>
<path d="M1395 0H1485V115C1485 139.853 1464.85 160 1440 160V160C1415.15 160 1395 139.853 1395 115V0Z" fill="#E89D9F"/>
<path d="M1575 0H1620V160V160C1595.15 160 1575 139.853 1575 115V0Z" fill="#E89D9F"/>
<path d="M225 0H315V115C315 139.853 294.853 160 270 160V160C245.147 160 225 139.853 225 115V0Z" fill="#EA8D8F"/>
<path d="M405 0H495V115C495 139.853 474.853 160 450 160V160C425.147 160 405 139.853 405 115V0Z" fill="#EA8D8F"/>
<path d="M585 0H675V115C675 139.853 654.853 160 630 160V160C605.147 160 585 139.853 585 115V0Z" fill="#EA8D8F"/>
<path d="M765 0H855V115C855 139.853 834.853 160 810 160V160C785.147 160 765 139.853 765 115V0Z" fill="#EA8D8F"/>
<path d="M945 0H1035V115C1035 139.853 1014.85 160 990 160V160C965.147 160 945 139.853 945 115V0Z" fill="#EA8D8F"/>
<path d="M1125 0H1215V115C1215 139.853 1194.85 160 1170 160V160C1145.15 160 1125 139.853 1125 115V0Z" fill="#EA8D8F"/>
<path d="M1305 0H1395V115C1395 139.853 1374.85 160 1350 160V160C1325.15 160 1305 139.853 1305 115V0Z" fill="#EA8D8F"/>
<path d="M1485 0H1575V115C1575 139.853 1554.85 160 1530 160V160C1505.15 160 1485 139.853 1485 115V0Z" fill="#EA8D8F"/>
<path d="M0 0H45V115C45 139.853 24.8528 160 0 160V160V0Z" fill="#E89D9F"/>
</svg>
